<?xml version="1.0" standalone="no"?><!DOCTYPE svg PUBLIC "-//W3C//DTD SVG 1.1//EN" "http://www.w3.org/Graphics/SVG/1.1/DTD/svg11.dtd"><svg t="1712422606136" class="icon" viewBox="0 0 1024 1024" version="1.1" xmlns="http://www.w3.org/2000/svg" p-id="4252" xmlns:xlink="http://www.w3.org/1999/xlink" width="200" height="200"><path d="M512.765 206.513c-299.215 0-414.378 295.546-414.378 295.546s117.24 302.21 414.378 302.21 414.378-302.21 414.378-302.21S811.98 206.513 512.765 206.513z m0 482.494c-102.067 0-184.807-82.74-184.807-184.807s82.74-184.806 184.807-184.806S697.571 402.133 697.571 504.2s-82.738 184.807-184.806 184.807z" p-id="4253"></path><path d="M409.003 503.318c0 57.611 46.702 104.313 104.312 104.313 57.611 0 104.313-46.702 104.313-104.313 0-57.61-46.702-104.312-104.313-104.312-57.611 0-104.312 46.702-104.312 104.312z" p-id="4254"></path></svg>