<?xml version="1.0" standalone="no"?><!DOCTYPE svg PUBLIC "-//W3C//DTD SVG 1.1//EN" "http://www.w3.org/Graphics/SVG/1.1/DTD/svg11.dtd"><svg t="1687937338068" class="icon" viewBox="0 0 1024 1024" version="1.1" xmlns="http://www.w3.org/2000/svg" p-id="1512" xmlns:xlink="http://www.w3.org/1999/xlink" width="200" height="200"><path d="M976.456 973.826c0 25.599-20.777 46.373-46.375 46.373-25.596 0-46.373-20.774-46.373-46.373 0-5.47 1.36-10.573 3.124-15.457h-4.668c-15.767-190.375-174.98-340.066-369.438-340.066-194.455 0-353.668 149.691-369.436 340.066h-4.667c1.762 4.884 3.122 9.987 3.122 15.457 0 25.599-20.775 46.373-46.373 46.373-25.597 0-46.373-20.774-46.373-46.373 0-5.47 1.36-10.573 3.123-15.457h-1.577c11.872-179.4 125.578-330.791 283.832-396.98-79.05-55.988-130.802-147.991-130.802-252.238C203.576 138.407 341.983 0 512.727 0s309.151 138.407 309.151 309.151c0 104.247-51.75 196.25-130.802 252.238 158.256 66.189 271.961 217.58 283.833 396.98h-1.578c1.763 4.884 3.125 9.987 3.125 15.457zM729.133 309.151c0-119.517-96.888-216.405-216.406-216.405s-216.406 96.888-216.406 216.405c0 119.519 96.888 216.407 216.406 216.407s216.406-96.888 216.406-216.407z" fill="#dd000e" p-id="1513"></path></svg>